<svg width="222" height="38" viewBox="0 0 222 38" fill="none" xmlns="http://www.w3.org/2000/svg">
<path d="M16.5215 28.0205C12.468 28.0205 9.16277 24.7153 9.16277 20.6619C9.16277 20.3589 9.21786 5.84351 9.21786 5.84351C3.75967 8.54276 0 14.1708 0 20.6619C0 29.7696 7.41377 37.1833 16.5215 37.1833H16.5261C23.0171 37.1833 28.6452 33.4191 31.3444 27.9609C31.3444 27.9609 16.8474 28.0205 16.5215 28.0205Z" fill="white"/>
<path d="M32.6206 13.3128V22.4755H18.4081C16.3975 22.4755 14.7678 20.8459 14.7678 18.8352V4.43921H23.9306V13.3128H32.6206Z" fill="#00F496"/>
<path d="M52.9983 33.6762C49.3258 33.6762 46.2593 32.4414 43.7896 29.9716C41.352 27.5019 40.1355 24.4492 40.1355 20.8135C40.1355 17.1777 41.352 14.125 43.7896 11.6553C46.2593 9.18555 49.3258 7.95068 52.9983 7.95068C55.367 7.95068 57.5292 8.51991 59.4802 9.65838C61.4266 10.7968 62.9047 12.3209 63.9146 14.2398L58.507 17.4073C58.0204 16.4019 57.2813 15.6032 56.2897 15.0202C55.2982 14.4372 54.1872 14.1434 52.9524 14.1434C51.0702 14.1434 49.5094 14.7677 48.2746 16.0209C47.0397 17.2695 46.4246 18.8716 46.4246 20.8181C46.4246 22.7645 47.0397 24.2931 48.2746 25.5922C49.5094 26.8271 51.0656 27.4422 52.9524 27.4422C54.2194 27.4422 55.3486 27.1576 56.3402 26.5884C57.3318 26.0192 58.0709 25.2342 58.5575 24.2242L64.0157 27.3412C62.946 29.2876 61.4265 30.8347 59.4618 31.9686C57.497 33.107 55.344 33.6762 53.0074 33.6762H52.9983Z" fill="white"/>
<path d="M82.621 21.7867V8.63477H88.9054V32.9923H82.621V30.2655C81.129 32.5379 78.7052 33.6763 75.3633 33.6763C72.7007 33.6763 70.4927 32.7857 68.7391 30.9954C67.0176 29.1776 66.1592 26.7078 66.1592 23.5908V8.63477H72.4437V22.8104C72.4437 24.4034 72.8752 25.6382 73.7336 26.515C74.5921 27.3918 75.7718 27.8325 77.2638 27.8325C78.921 27.8325 80.2293 27.323 81.1841 26.2993C82.1435 25.2756 82.621 23.7745 82.621 21.7913V21.7867Z" fill="white"/>
<path d="M99.409 8.63491V12.8261C99.9599 11.2974 100.901 10.1406 102.237 9.34186C103.568 8.54769 105.097 8.63491 106.818 8.63491V15.1627C104.904 15.1627 103.178 15.2912 101.654 16.3333C100.162 17.3386 99.4136 19.0142 99.4136 21.3508V32.9925H93.1292V8.63491H99.4136H99.409Z" fill="white"/>
<path d="M129.877 29.9716C127.407 32.4414 124.354 33.6762 120.718 33.6762C117.083 33.6762 114.025 32.4414 111.56 29.9716C109.091 27.5019 107.856 24.4492 107.856 20.8135C107.856 17.1777 109.091 14.1709 111.56 11.7012C114.062 9.19931 117.115 7.95068 120.718 7.95068C124.322 7.95068 127.375 9.19931 129.877 11.7012C132.379 14.203 133.627 17.2374 133.627 20.8135C133.627 24.3895 132.374 27.4744 129.877 29.9716ZM115.99 25.6336C117.257 26.9006 118.832 27.5341 120.718 27.5341C122.605 27.5341 124.18 26.9006 125.447 25.6336C126.714 24.3666 127.347 22.7599 127.347 20.8089C127.347 18.8579 126.714 17.2512 125.447 15.9842C124.18 14.7172 122.605 14.0837 120.718 14.0837C118.832 14.0837 117.257 14.7172 115.99 15.9842C114.755 17.2833 114.14 18.89 114.14 20.8089C114.14 22.7277 114.755 24.3344 115.99 25.6336Z" fill="white"/>
<path d="M141.665 32.9924H137.428V0H141.665V32.9924Z" fill="white"/>
<path d="M166.784 12.8215V8.63027H171.021V32.9878H166.784V28.7967C164.705 32.01 161.638 33.6213 157.576 33.6213C154.133 33.6213 151.227 32.3865 148.854 29.9168C146.448 27.4149 145.25 24.3805 145.25 20.8045C145.25 17.2284 146.453 14.2445 148.854 11.7427C151.259 9.24081 154.165 7.99219 157.576 7.99219C161.634 7.99219 164.705 9.59889 166.784 12.8169V12.8215ZM158.113 29.5311C160.583 29.5311 162.644 28.7048 164.301 27.0476C165.958 25.3262 166.784 23.2466 166.784 20.8136C166.784 18.3806 165.958 16.2827 164.301 14.6256C162.644 12.9362 160.583 12.0916 158.113 12.0916C155.643 12.0916 153.632 12.9362 151.975 14.6256C150.318 16.2827 149.492 18.3439 149.492 20.8136C149.492 23.2834 150.318 25.3308 151.975 27.0476C153.632 28.7048 155.68 29.5311 158.113 29.5311Z" fill="white"/>
<path d="M189.375 8.00116C192.786 8.00116 195.692 9.2498 198.097 11.7517C200.503 14.2535 201.701 17.2741 201.701 20.8134C201.701 24.3528 200.498 27.4239 198.097 29.9257C195.724 32.3955 192.818 33.6303 189.375 33.6303C185.349 33.6303 182.278 32.0236 180.166 28.8056V32.9968H175.929V0.00439453H180.166V12.8304C182.278 9.61246 185.349 8.00576 189.375 8.00576V8.00116ZM188.838 29.5355C191.275 29.5355 193.318 28.7092 194.975 27.052C196.633 25.3306 197.459 23.251 197.459 20.818C197.459 18.385 196.633 16.2871 194.975 14.6299C193.318 12.9406 191.271 12.096 188.838 12.096C186.405 12.096 184.307 12.9406 182.65 14.6299C180.993 16.2871 180.166 18.3483 180.166 20.818C180.166 23.2878 180.993 25.3352 182.65 27.052C184.307 28.7092 186.368 29.5355 188.838 29.5355Z" fill="white"/>
<path d="M208.357 15.2082C208.357 16.769 209.964 17.9855 213.182 18.8623C214.384 19.124 215.399 19.3902 216.225 19.6657C217.051 19.9411 217.96 20.3542 218.952 20.9097C219.943 21.4606 220.696 22.1951 221.22 23.104C221.738 24.0129 222 25.0871 222 26.3174C222 28.5255 221.137 30.2974 219.42 31.6287C217.699 32.9599 215.523 33.6256 212.892 33.6256C210.556 33.6256 208.531 33.116 206.828 32.0923C205.125 31.0686 203.913 29.6823 203.197 27.9287L206.851 25.8354C207.241 27.006 207.971 27.9287 209.045 28.6127C210.12 29.2967 211.4 29.6364 212.892 29.6364C214.384 29.6364 215.523 29.3609 216.399 28.8101C217.276 28.2592 217.717 27.4283 217.717 26.3266C217.717 24.6694 216.11 23.4667 212.892 22.723C211.818 22.4292 211.01 22.2043 210.455 22.039C209.904 21.8783 209.146 21.5845 208.192 21.1622C207.232 20.7399 206.511 20.2946 206.025 19.8217C205.538 19.3489 205.088 18.7154 204.684 17.9212C204.276 17.1271 204.074 16.2411 204.074 15.2679C204.074 13.1562 204.886 11.421 206.511 10.053C208.169 8.68961 210.23 8.00562 212.699 8.00562C214.678 8.00562 216.441 8.45089 217.988 9.34605C219.53 10.2412 220.692 11.4807 221.472 13.0736L217.914 15.0705C217.038 12.991 215.298 11.9535 212.699 11.9535C211.465 11.9535 210.432 12.2473 209.605 12.8303C208.779 13.4133 208.361 14.2121 208.361 15.2174L208.357 15.2082Z" fill="white"/>
</svg>
